<svg xmlns="http://www.w3.org/2000/svg" width="19" height="19" viewBox="0 0 19 19">
    <g id="Flat" transform="translate(-3 -2)">
        <g id="Group_2" data-name="Group 2">
            <path id="Path_51" data-name="Path 51"
                  d="M18,12a1,1,0,0,0-1,1v5.22a1,1,0,0,1-1,1H6a1,1,0,0,1-1-1V8A1,1,0,0,1,6,7h5a1,1,0,0,0,0-2H5A2.006,2.006,0,0,0,3,7V19a2.006,2.006,0,0,0,2,2H17a2.006,2.006,0,0,0,2-2V13A1,1,0,0,0,18,12Z"
                  fill="#fff"/>
            <path id="Path_52" data-name="Path 52"
                  d="M21.02,5H19V2.98A.982.982,0,0,0,18.02,2h-.03a.984.984,0,0,0-.99.98V5H14.99a1,1,0,0,0-.99.98v.03a.986.986,0,0,0,.99.99H17V9.01a.977.977,0,0,0,.99.98h.03A.982.982,0,0,0,19,9.01V7h2.02A.982.982,0,0,0,22,6.02V5.98A.982.982,0,0,0,21.02,5Z"
                  fill="#fff"/>
            <path id="Path_53" data-name="Path 53" d="M14,9H8a1,1,0,0,0,0,2h6a1,1,0,0,0,0-2Z" fill="#fff"/>
            <path id="Path_54" data-name="Path 54" d="M14,12H8a1,1,0,0,0,0,2h6a1,1,0,0,0,0-2Z" fill="#fff"/>
            <path id="Path_55" data-name="Path 55" d="M14,15H8a1,1,0,0,0,0,2h6a1,1,0,0,0,0-2Z" fill="#fff"/>
        </g>
    </g>
</svg>
