<svg xmlns="http://www.w3.org/2000/svg" width="24" height="19.636" viewBox="0 0 24 19.636">
    <path id="Add_Task" data-name="Add Task"
          d="M22.818,3H3.182A2.188,2.188,0,0,0,1,5.182V18.273a2.188,2.188,0,0,0,2.182,2.182H8.636v1.091a1.094,1.094,0,0,0,1.091,1.091h6.545a1.094,1.094,0,0,0,1.091-1.091V20.455h5.455A2.188,2.188,0,0,0,25,18.273V5.182A2.181,2.181,0,0,0,22.818,3ZM21.727,18.273H4.273a1.094,1.094,0,0,1-1.091-1.091V6.273A1.094,1.094,0,0,1,4.273,5.182H21.727a1.094,1.094,0,0,1,1.091,1.091V17.182A1.094,1.094,0,0,1,21.727,18.273Zm-4.364-6.545a1.094,1.094,0,0,1-1.091,1.091H14.091V15a1.091,1.091,0,0,1-2.182,0V12.818H9.727a1.091,1.091,0,0,1,0-2.182h2.182V8.455a1.091,1.091,0,1,1,2.182,0v2.182h2.182A1.094,1.094,0,0,1,17.364,11.727Z"
          transform="translate(-1 -3)" fill="#fff"/>
</svg>
