<svg xmlns="http://www.w3.org/2000/svg" width="27.002" height="26" viewBox="0 0 27.002 26">
    <path id="Path_65" data-name="Path 65"
          d="M9.1,21.778a1.437,1.437,0,0,1,1.421,1.444,2.874,2.874,0,0,1-2.842,2.889,3.952,3.952,0,0,1-.71-.072,5.774,5.774,0,0,0,.71-2.817A1.437,1.437,0,0,1,9.1,21.778M25.688,3a1.443,1.443,0,0,0-1.009.419L11.947,16.361l3.908,3.972L28.587,7.391a1.455,1.455,0,0,0,0-2.037l-1.9-1.936A1.375,1.375,0,0,0,25.688,3ZM9.1,18.889a4.293,4.293,0,0,0-4.263,4.333A2.906,2.906,0,0,1,2,26.111,7.312,7.312,0,0,0,7.684,29a5.73,5.73,0,0,0,5.684-5.778A4.293,4.293,0,0,0,9.1,18.889Z"
          transform="translate(-2 -3)" fill="#fff"/>
</svg>
