<svg xmlns="http://www.w3.org/2000/svg" width="16" height="17.593" viewBox="0 0 16 17.593">
    <path id="Path_37" data-name="Path 37"
          d="M19,8H17.19a5.985,5.985,0,0,0-1.82-1.96l.93-.93A1,1,0,0,0,14.89,3.7L13.42,5.17A6.065,6.065,0,0,0,12,5a5.918,5.918,0,0,0-1.41.17L9.11,3.7A1,1,0,0,0,7.7,5.11l.92.93A6.062,6.062,0,0,0,6.81,8H5a1,1,0,0,0,0,2H6.09A6.638,6.638,0,0,0,6,11v1H5a1,1,0,0,0,0,2H6v1a6.638,6.638,0,0,0,.09,1H5a1,1,0,0,0,0,2H6.81a5.989,5.989,0,0,0,10.38,0H19a1,1,0,0,0,0-2H17.91A6.638,6.638,0,0,0,18,15V14h1a1,1,0,0,0,0-2H18V11a6.638,6.638,0,0,0-.09-1H19a1,1,0,0,0,0-2Zm-6,8H11a1,1,0,0,1,0-2h2a1,1,0,0,1,0,2Zm0-4H11a1,1,0,0,1,0-2h2a1,1,0,0,1,0,2Z"
          transform="translate(-4 -3.408)" fill="#fff"/>
</svg>
