<svg xmlns="http://www.w3.org/2000/svg" width="30" height="26" viewBox="0 0 30 26">
    <path id="Path_120" data-name="Path 120"
          d="M24.182,14.556H16A1.41,1.41,0,0,0,14.636,16v5.778A1.41,1.41,0,0,0,16,23.222h8.182a1.41,1.41,0,0,0,1.364-1.444V16A1.41,1.41,0,0,0,24.182,14.556ZM31,26.111V5.86A2.794,2.794,0,0,0,28.273,3H3.727A2.794,2.794,0,0,0,1,5.86V26.111A2.82,2.82,0,0,0,3.727,29H28.273A2.82,2.82,0,0,0,31,26.111Zm-4.091.029H5.091A1.41,1.41,0,0,1,3.727,24.7V7.29A1.41,1.41,0,0,1,5.091,5.846H26.909A1.41,1.41,0,0,1,28.273,7.29V24.7A1.41,1.41,0,0,1,26.909,26.14Z"
          transform="translate(-1 -3)" fill="#fff"/>
</svg>
