<svg xmlns="http://www.w3.org/2000/svg" width="34.158" height="32" viewBox="0 0 34.158 32">
    <path id="Playlist_Icon" data-name="Playlist Icon"
          d="M6.351,15.4H29.859a2.351,2.351,0,1,1,0,4.7H6.351a2.351,2.351,0,1,1,0-4.7Zm0-9.4H29.859a2.351,2.351,0,0,1,0,4.7H6.351a2.351,2.351,0,0,1,0-4.7Zm0,18.807H20.456a2.351,2.351,0,0,1,0,4.7H6.351a2.351,2.351,0,0,1,0-4.7Zm21.158,2.069V36.82A1.178,1.178,0,0,0,29.3,37.831l8.3-4.984a1.188,1.188,0,0,0,0-2.022l-8.3-4.984a1.2,1.2,0,0,0-1.787,1.034Z"
          transform="translate(-4 -6)" fill="#fff"/>
</svg>
