<svg xmlns="http://www.w3.org/2000/svg" width="30" height="30" viewBox="0 0 30 30">
    <path id="Path_9" data-name="Path 9"
          d="M7.818,14.636H2.364a1.364,1.364,0,1,0,0,2.727H7.818a1.364,1.364,0,1,0,0-2.727Zm3.368-5.373L10.2,8.282A1.36,1.36,0,0,0,8.282,10.2l.968.968a1.36,1.36,0,0,0,1.936-1.909ZM16,1a1.359,1.359,0,0,0-1.364,1.364V7.818a1.364,1.364,0,1,0,2.727,0V2.364A1.368,1.368,0,0,0,16,1Zm7.718,7.3a1.358,1.358,0,0,0-1.923,0l-.968.968a1.36,1.36,0,0,0,1.923,1.923l.968-.968a1.383,1.383,0,0,0,0-1.923Zm-.9,7.7a1.359,1.359,0,0,0,1.364,1.364h5.455a1.364,1.364,0,0,0,0-2.727H24.182A1.368,1.368,0,0,0,22.818,16ZM16,11.909A4.091,4.091,0,1,0,20.091,16,4.085,4.085,0,0,0,16,11.909Zm4.814,10.827.968.968A1.36,1.36,0,0,0,23.7,21.782l-.968-.968a1.358,1.358,0,0,0-1.923,0,1.383,1.383,0,0,0,0,1.923ZM8.282,23.7a1.358,1.358,0,0,0,1.923,0l.968-.968A1.36,1.36,0,0,0,9.25,20.814l-.968.968A1.383,1.383,0,0,0,8.282,23.7ZM16,31a1.359,1.359,0,0,0,1.364-1.364V24.182a1.364,1.364,0,1,0-2.727,0v5.455A1.368,1.368,0,0,0,16,31Z"
          transform="translate(-1 -1)" fill="#fff"/>
</svg>
