<svg xmlns="http://www.w3.org/2000/svg" width="10" height="10" viewBox="0 0 10 10">
    <path id="Path_67" data-name="Path 67"
          d="M13,11.889V4.111A1.114,1.114,0,0,0,11.889,3H4.111A1.114,1.114,0,0,0,3,4.111v7.778A1.114,1.114,0,0,0,4.111,13h7.778A1.114,1.114,0,0,0,13,11.889ZM6.278,9.1l1.167,1.406L9.167,8.289a.279.279,0,0,1,.444.006l1.95,2.6a.278.278,0,0,1-.222.444H4.678a.277.277,0,0,1-.217-.45L5.844,9.111A.274.274,0,0,1,6.278,9.1Z"
          transform="translate(-3 -3)" fill="#fff"/>
</svg>
