<svg xmlns="http://www.w3.org/2000/svg" width="18.656" height="24" viewBox="0 0 18.656 24">
    <path id="loop-24px"
          d="M13.328,4.38V2.293a.577.577,0,0,0-.991-.408L9.072,5.138a.577.577,0,0,0,0,.828l3.253,3.253a.59.59,0,0,0,1-.42V6.712a7,7,0,0,1,7,7,6.79,6.79,0,0,1-.513,2.624,1.12,1.12,0,0,0,.268,1.213,1.169,1.169,0,0,0,1.912-.4,9.127,9.127,0,0,0,.665-3.44A9.325,9.325,0,0,0,13.328,4.38Zm0,16.324a7,7,0,0,1-7-7,6.79,6.79,0,0,1,.513-2.624,1.12,1.12,0,0,0-.268-1.213,1.169,1.169,0,0,0-1.912.4A9.127,9.127,0,0,0,4,13.708a9.325,9.325,0,0,0,9.328,9.328v2.087a.577.577,0,0,0,.991.408l3.253-3.253a.577.577,0,0,0,0-.828L14.319,18.2a.583.583,0,0,0-.991.42Z"
          transform="translate(-4 -1.708)" fill="#fff"/>
</svg>
