<svg xmlns="http://www.w3.org/2000/svg" width="32" height="32" viewBox="0 0 32 32">
    <path id="Path_146" data-name="Path 146"
          d="M15.444,13.738V24.262a.886.886,0,0,0,1.44.693l6.578-5.262a.888.888,0,0,0,0-1.387l-6.578-5.262a.886.886,0,0,0-1.44.693ZM31.444,3H6.556A3.566,3.566,0,0,0,3,6.556V31.444A3.566,3.566,0,0,0,6.556,35H31.444A3.566,3.566,0,0,0,35,31.444V6.556A3.566,3.566,0,0,0,31.444,3ZM29.667,31.444H8.333a1.783,1.783,0,0,1-1.778-1.778V8.333A1.783,1.783,0,0,1,8.333,6.556H29.667a1.783,1.783,0,0,1,1.778,1.778V29.667A1.783,1.783,0,0,1,29.667,31.444Z"
          transform="translate(-3 -3)" fill="#fff"/>
</svg>
