<svg xmlns="http://www.w3.org/2000/svg" width="32" height="32" viewBox="0 0 32 32">
    <path id="Music_Button" data-name="Music Button"
          d="M30.8,2H11.6A3.209,3.209,0,0,0,8.4,5.2V24.4a3.209,3.209,0,0,0,3.2,3.2H30.8A3.209,3.209,0,0,0,34,24.4V5.2A3.209,3.209,0,0,0,30.8,2ZM26,10H22.8v8.592a4.134,4.134,0,0,1-3.456,4.16,4,4,0,1,1-.8-7.952,3.93,3.93,0,0,1,2.656.816V8.4a1.6,1.6,0,0,1,1.6-1.6H26A1.6,1.6,0,0,1,26,10ZM3.6,8.4A1.6,1.6,0,0,0,2,10V30.8A3.209,3.209,0,0,0,5.2,34H26a1.6,1.6,0,0,0,0-3.2H6.8a1.6,1.6,0,0,1-1.6-1.6V10A1.6,1.6,0,0,0,3.6,8.4Z"
          transform="translate(-2 -2)" fill="#fff"/>
</svg>
