<svg id="MV_Icon" data-name="MV Icon" xmlns="http://www.w3.org/2000/svg" width="16" height="16" viewBox="0 0 16 16">
    <path id="Path_117" data-name="Path 117" d="M0,0H16V16H0Z" fill="none"/>
    <path id="Path_118" data-name="Path 118"
          d="M15.545,3H2.455A1.376,1.376,0,0,0,1,4.27v7.619a1.376,1.376,0,0,0,1.455,1.27H6.091v.635a.688.688,0,0,0,.727.635h4.364a.688.688,0,0,0,.727-.635v-.635h3.636a1.369,1.369,0,0,0,1.447-1.27L17,4.27A1.371,1.371,0,0,0,15.545,3Zm-.727,8.889H3.182a.688.688,0,0,1-.727-.635V4.9a.688.688,0,0,1,.727-.635H14.818a.688.688,0,0,1,.727.635v6.349A.688.688,0,0,1,14.818,11.889ZM10.8,8.632,7.909,10.079a.737.737,0,0,1-1.091-.552v-2.9a.734.734,0,0,1,1.091-.552L10.8,7.527A.6.6,0,0,1,10.8,8.632Z"
          transform="translate(-1 -0.714)" fill="#fff"/>
</svg>
