<svg xmlns="http://www.w3.org/2000/svg" width="24" height="28.431" viewBox="0 0 24 28.431">
    <path id="Path_21" data-name="Path 21"
          d="M23.635,5.731a25.162,25.162,0,0,0-3.6-3.966.751.751,0,0,0-1.26.64,22.744,22.744,0,0,1,.585,4.578,4.991,4.991,0,0,1-5.115,5.19A5.407,5.407,0,0,1,9.22,9.029a3.317,3.317,0,0,1-.3-.751.772.772,0,0,0-1.35-.25c-.27.376-.525.751-.765,1.155A18.116,18.116,0,0,0,4,18.868C4,25.018,9.37,30,16,30s12-4.982,12-11.132A22.223,22.223,0,0,0,23.635,5.731Zm-8.07,20.094a4.61,4.61,0,0,1-4.83-4.369c0-2.254,1.575-3.841,4.215-4.342a13.059,13.059,0,0,0,6.045-2.672.755.755,0,0,1,1.23.32,18.583,18.583,0,0,1,.525,4.383A6.933,6.933,0,0,1,15.565,25.825Z"
          transform="translate(-4 -1.569)" fill="#ffc940"/>
</svg>
