<svg xmlns="http://www.w3.org/2000/svg" width="39.111" height="32" viewBox="0 0 39.111 32">
    <path id="Go_to_Space" data-name="Go to Space"
          d="M36.556,3h-32A3.566,3.566,0,0,0,1,6.556V31.444A3.566,3.566,0,0,0,4.556,35h32a3.566,3.566,0,0,0,3.556-3.556V6.556A3.566,3.566,0,0,0,36.556,3ZM18.778,19H6.333a1.783,1.783,0,0,1-1.778-1.778V8.333A1.783,1.783,0,0,1,6.333,6.556H18.778a1.783,1.783,0,0,1,1.778,1.778v8.889A1.783,1.783,0,0,1,18.778,19Z"
          transform="translate(-1 -3)" fill="#fff"/>
</svg>
