<svg xmlns="http://www.w3.org/2000/svg" width="48" height="64" viewBox="0 0 48 64">
    <g id="PDF_Icon" data-name="PDF Icon" transform="translate(0)">
        <path id="path890"
              d="M-47.453,183.976a6.378,6.378,0,0,0-6.095,6.612v50.776a6.378,6.378,0,0,0,6.095,6.612h35.8a6.378,6.378,0,0,0,6.095-6.612V199.611a5.9,5.9,0,0,0-.394-2.412,6.692,6.692,0,0,0-1.206-1.891l-.006-.008-8.883-9.449-.015-.016a7.02,7.02,0,0,0-1.883-1.306,6.4,6.4,0,0,0-2.688-.551l.02,0Z"
              transform="translate(53.548 -183.976)" fill="#ff2116"/>
        <path id="rect2684"
              d="M-46.526,187.118h25.47a4.954,4.954,0,0,1,1.762.364,4.82,4.82,0,0,1,1.228.859l0,0,8.4,9.12a5.153,5.153,0,0,1,.751,1.2,5,5,0,0,1,.21,1.39q0,.022,0,.045v40.438a4.072,4.072,0,0,1-3.88,4.3H-46.526a4.072,4.072,0,0,1-3.88-4.3V191.414a4.072,4.072,0,0,1,3.88-4.3Z"
              transform="translate(53.406 -183.976)" fill="#f5f5f5"/>
        <path id="path2697"
              d="M-35.21,217.01c-.881-.881.072-2.091,2.659-3.377l1.627-.809.634-1.387c.349-.763.869-2.008,1.157-2.767l.523-1.379-.36-1.021a7.293,7.293,0,0,1-.32-3.819c.381-.919,1.627-.824,2.12.16a6.221,6.221,0,0,1-.111,3.918l-.375,1.44.33.56a19.438,19.438,0,0,0,1.178,1.625l.876,1.09,1.091-.142c3.464-.452,4.651.316,4.651,1.418,0,1.39-2.72,1.505-5-.1a6.938,6.938,0,0,1-.867-.72s-1.431.291-2.136.481c-.727.2-1.09.319-2.156.678,0,0-.374.543-.617.937a10.1,10.1,0,0,1-2.72,3.128,1.854,1.854,0,0,1-2.18.083Zm1.382-.494a10.424,10.424,0,0,0,2.191-2.592l.281-.445-1.279.643c-1.975.993-2.879,1.929-2.409,2.5C-34.78,216.936-34.464,216.909-33.828,216.516Zm12.831-3.6a.743.743,0,0,0-.134-1.3,3.6,3.6,0,0,0-1.877-.242c-.68.046-1.774.183-1.96.225,0,0,.6.415.868.568a11.532,11.532,0,0,0,1.848.772c.622.19.981.17,1.254-.025Zm-5.159-2.144a12.66,12.66,0,0,1-1.108-1.429,7.963,7.963,0,0,1-.621-.925s-.3.972-.55,1.557l-.773,1.911-.224.434s1.192-.391,1.8-.549c.642-.168,1.946-.424,1.946-.424Zm-1.663-6.667a2.8,2.8,0,0,0-.1-1.57c-.559-.611-1.234-.1-1.12,1.352a9.912,9.912,0,0,0,.322,1.84l.3.937.208-.705a18.509,18.509,0,0,0,.39-1.853Z"
              transform="translate(51.53 -187.898)" fill="#ff2116"/>
        <g id="g858" transform="translate(8 41.823)">
            <path id="path845"
                  d="M-31.067,249.125h3.51a9.541,9.541,0,0,1,2.731.322,3.207,3.207,0,0,1,1.766,1.4,4.608,4.608,0,0,1,.717,2.607,4.74,4.74,0,0,1-.582,2.409,3.415,3.415,0,0,1-1.568,1.454,7.639,7.639,0,0,1-3.012.447H-28.72V263.3h-2.347Zm2.347,1.817v4.944h1.163a3.062,3.062,0,0,0,2.15-.582,2.538,2.538,0,0,0,.6-1.89,2.837,2.837,0,0,0-.395-1.579,1.619,1.619,0,0,0-.872-.748,5.458,5.458,0,0,0-1.485-.145Z"
                  transform="translate(31.067 -249.125)" fill="#2c2c2c"/>
            <path id="path847"
                  d="M-20.547,249.125h3.188a7.207,7.207,0,0,1,3.7.82,5.1,5.1,0,0,1,2.1,2.441,8.788,8.788,0,0,1,.717,3.593,10.031,10.031,0,0,1-.644,3.708,5.9,5.9,0,0,1-1.953,2.617,6.07,6.07,0,0,1-3.739,1h-3.365ZM-18.2,251v10.417h.976a3.287,3.287,0,0,0,2.97-1.412,6.873,6.873,0,0,0,.924-3.791q0-5.214-3.895-5.214Z"
                  transform="translate(31.909 -249.125)" fill="#2c2c2c"/>
            <path id="path849" d="M-8.593,249.125H-.72V251H-6.245v4.237h4.424v1.88H-6.245v6.18H-8.593Z"
                  transform="translate(32.72 -249.125)" fill="#2c2c2c"/>
        </g>
    </g>
</svg>
