<svg xmlns="http://www.w3.org/2000/svg" width="32" height="24" viewBox="0 0 32 24">
    <path id="queue_music-24px"
          d="M21.526,6H4.684a1.715,1.715,0,0,0,0,3.429H21.526a1.715,1.715,0,0,0,0-3.429Zm0,6.858H4.684a1.715,1.715,0,0,0,0,3.429H21.526a1.715,1.715,0,0,0,0-3.429ZM4.684,23.146H14.789a1.715,1.715,0,0,0,0-3.429H4.684a1.715,1.715,0,0,0,0,3.429ZM29.947,6a3.409,3.409,0,0,0-3.368,3.429v10.6a4.98,4.98,0,0,0-1.684-.309,5.135,5.135,0,1,0,5.053,5.144V9.429h3.368a1.715,1.715,0,0,0,0-3.429Z"
          transform="translate(-3 -6)" fill="#fff"/>
</svg>
