<svg xmlns="http://www.w3.org/2000/svg" width="25" height="21" viewBox="0 0 25 21">
    <path id="Path_96" data-name="Path 96"
          d="M14.294,26h4.412a1.553,1.553,0,0,0,1.471-1.615V17.923a1.553,1.553,0,0,0-1.471-1.615H14.294a1.553,1.553,0,0,0-1.471,1.615v6.462A1.553,1.553,0,0,0,14.294,26ZM5.471,26H9.882a1.553,1.553,0,0,0,1.471-1.615V6.615A1.553,1.553,0,0,0,9.882,5H5.471A1.553,1.553,0,0,0,4,6.615V24.385A1.553,1.553,0,0,0,5.471,26Zm17.647,0h4.412A1.553,1.553,0,0,0,29,24.385V17.923a1.553,1.553,0,0,0-1.471-1.615H23.118a1.553,1.553,0,0,0-1.471,1.615v6.462A1.553,1.553,0,0,0,23.118,26ZM12.824,6.615v6.462a1.553,1.553,0,0,0,1.471,1.615H27.529A1.553,1.553,0,0,0,29,13.077V6.615A1.553,1.553,0,0,0,27.529,5H14.294A1.553,1.553,0,0,0,12.824,6.615Z"
          transform="translate(-4 -5)" fill="#fff"/>
</svg>
