<svg xmlns="http://www.w3.org/2000/svg" width="26" height="28" viewBox="0 0 26 28">
    <path id="Path_7" data-name="Path 7"
          d="M8.778,20.6H18.889v2.8H8.778Zm0-5.6H23.222v2.8H8.778Zm0-5.6H23.222v2.8H8.778ZM26.111,3.8H20.073a4.363,4.363,0,0,0-8.147,0H5.889a2.608,2.608,0,0,0-.578.056,2.928,2.928,0,0,0-1.459.77,2.8,2.8,0,0,0-.621.9A2.626,2.626,0,0,0,3,6.6V26.2a2.8,2.8,0,0,0,.231,1.092,2.963,2.963,0,0,0,.621.9,2.928,2.928,0,0,0,1.459.77A3.865,3.865,0,0,0,5.889,29H26.111A2.854,2.854,0,0,0,29,26.2V6.6A2.854,2.854,0,0,0,26.111,3.8ZM16,3.45A1.075,1.075,0,0,1,17.083,4.5a1.084,1.084,0,0,1-2.167,0A1.075,1.075,0,0,1,16,3.45ZM26.111,26.2H5.889V6.6H26.111Z"
          transform="translate(-3 -1)" fill="#fff"/>
</svg>
