<svg xmlns="http://www.w3.org/2000/svg" width="24" height="34.918" viewBox="0 0 24 34.918">
    <path id="Icon"
          d="M37.629,0A13.214,13.214,0,0,0,25.892,6.208a1.639,1.639,0,0,0,.353,2.242l2.942,2.231a1.637,1.637,0,0,0,2.268-.283c1.708-2.14,2.976-3.372,5.644-3.372,2.1,0,4.693,1.35,4.693,3.385,0,1.538-1.27,2.328-3.341,3.489-2.416,1.354-5.613,3.04-5.613,7.257v.668a1.637,1.637,0,0,0,1.637,1.637h4.943a1.637,1.637,0,0,0,1.637-1.637V21.43c0-2.923,8.543-3.045,8.543-10.955C49.6,4.519,43.418,0,37.629,0Zm-.683,25.47a4.724,4.724,0,1,0,4.724,4.724A4.73,4.73,0,0,0,36.946,25.47Z"
          transform="translate(-25.597)" fill="#fff"/>
</svg>
