<svg xmlns="http://www.w3.org/2000/svg" width="32" height="28" viewBox="0 0 32 28">
    <path id="Path_63" data-name="Path 63"
          d="M2.667,7.6H0v7H.013L0,27.2A2.744,2.744,0,0,0,2.667,30h24V27.2h-24ZM9.333,20.2H28l-4.667-6.3L20,18.114,15.333,11.8Zm20-15.4H18.667L16,2H8A2.733,2.733,0,0,0,5.347,4.8L5.333,21.6A2.744,2.744,0,0,0,8,24.4H29.333A2.744,2.744,0,0,0,32,21.6V7.6A2.744,2.744,0,0,0,29.333,4.8Zm0,16.8H8V4.8h6.893l1.88,1.974.787.826H29.333Z"
          transform="translate(0 -2)" fill="#fff"/>
</svg>
