<svg xmlns="http://www.w3.org/2000/svg" width="29.912" height="29.984" viewBox="0 0 29.912 29.984">
    <path id="Path_75" data-name="Path 75"
          d="M30.5,25.533l-12.4-12.384A8.866,8.866,0,0,0,4.632,2.715L9.874,7.966,7.935,9.89,2.707,4.666A8.855,8.855,0,0,0,13,18.168L25.436,30.594a1.36,1.36,0,0,0,1.925,0l3.14-3.137a1.334,1.334,0,0,0,0-1.923Zm-4.1,2.182-12.914-12.9a5.971,5.971,0,0,1-2.73,1.118,6.121,6.121,0,0,1-7.03-6.4l4.218,4.214,5.788-5.783L9.519,3.752a6.158,6.158,0,0,1,4.7,1.787,6.091,6.091,0,0,1,1.693,5.4,5.929,5.929,0,0,1-1.2,2.673L27.606,26.5Z"
          transform="translate(-0.998 -1.008)" fill="#fff"/>
</svg>
