<svg xmlns="http://www.w3.org/2000/svg" width="24" height="24" viewBox="0 0 24 24">
    <path id="shuffle-24px"
          d="M13.924,11.755l-6.88-6.7a1.561,1.561,0,0,0-2.17,0,1.467,1.467,0,0,0,0,2.115l6.865,6.69Zm7.327-6.48L23.082,7.06,4.858,24.82a1.467,1.467,0,0,0,0,2.115,1.561,1.561,0,0,0,2.17,0L25.268,9.19,27.1,10.975a.772.772,0,0,0,1.308-.54V4.75a.753.753,0,0,0-.77-.75H21.8A.748.748,0,0,0,21.25,5.275Zm-.8,12.84L18.28,20.23l4.818,4.7-1.847,1.8A.748.748,0,0,0,21.8,28h5.834a.753.753,0,0,0,.77-.75V21.565A.764.764,0,0,0,27.1,21.04l-1.832,1.785-4.818-4.71Z"
          transform="translate(-4.408 -4)" fill="#fff"/>
</svg>
