<svg xmlns="http://www.w3.org/2000/svg" width="27.073" height="27.781" viewBox="0 0 27.073 27.781">
    <path id="Path_23" data-name="Path 23"
          d="M21.493,20.52,16.71,17.711V11.349a1.012,1.012,0,0,0-1.022-1.011H15.6a1.012,1.012,0,0,0-1.022,1.011v6.629a1.388,1.388,0,0,0,.7,1.208l5.181,3.076a1.018,1.018,0,0,0,1.391-.337,1,1,0,0,0-.355-1.4ZM29.031,6.139l-4.372-3.6a1.431,1.431,0,0,0-2,.183,1.408,1.408,0,0,0,.185,1.98L27.2,8.3a1.431,1.431,0,0,0,2-.183,1.394,1.394,0,0,0-.17-1.98ZM4.786,8.3l4.358-3.6a1.383,1.383,0,0,0,.185-1.98,1.413,1.413,0,0,0-1.987-.183l-4.372,3.6a1.394,1.394,0,0,0-.17,1.98A1.413,1.413,0,0,0,4.786,8.3ZM16,4.72A12.641,12.641,0,1,0,28.775,17.36,12.709,12.709,0,0,0,16,4.72Zm0,22.471a9.831,9.831,0,1,1,9.936-9.831A9.895,9.895,0,0,1,16,27.191Z"
          transform="translate(-2.464 -2.219)" fill="#48aff0"/>
</svg>
